<svg xmlns="http://www.w3.org/2000/svg" viewBox="0 0 1308.56 122.09"><defs><style>.cls-1{fill:#03578f;}.cls-2{fill:#005ccc;}</style></defs><title>scissors-decor</title><g id="Слой_2" data-name="Слой 2"><g id="Слой_1-2" data-name="Слой 1"><path class="cls-1" d="M587.94,16.13l13.49,9.41,4.05-3.6c-2-.62-4.31-1.33-5.1-1.67-2.92-1.28-8.73-5.64-11.62-7.88C588.76,7.51,584.7,3,579,2,572.8.88,567,4.17,565.85,9.5c0,.09,0,.2-.06.28-1,5.44,3.34,10.8,9.64,11.93,5.44,1,10.54-1.39,12.5-5.58Zm-19.28-5.84h0l0-.17c.82-3.74,5.22-6.12,9.81-5.27s8,4.71,7.29,8.56l0,.2c-.79,3.74-5.22,6.09-9.81,5.27s-8-4.71-7.29-8.59Z"/><path class="cls-1" d="M578.92,51.87c5.61-.68,10-4.68,10.37-9.55a.55.55,0,0,0,0-.2,54.62,54.62,0,0,1,15.59-9.95c2.75-1.81,51.39-15.31,51.39-15.31l-.6-1.59-47.59,6.86s-13,12.42-19.59,15.79c-1.84-4-6.66-6.6-12-6-5.58.68-9.95,4.68-10.37,9.55a12.06,12.06,0,0,0,0,1.76c.65,5.5,6.35,9.35,12.7,8.62Zm29.51-26.11h0a1.71,1.71,0,0,1,1.87-1.62,1.75,1.75,0,1,1-.28,3.49,1.71,1.71,0,0,1-1.59-1.87ZM569.11,42.92h0a5.27,5.27,0,0,1,0-1.16c.28-3.51,3.57-6.43,7.82-6.92,4.79-.57,9,2.15,9.5,6.07a5.27,5.27,0,0,1,0,1.16c-.28,3.51-3.6,6.43-7.85,6.92-4.76.57-9-2.15-9.47-6.07Z"/><polygon class="cls-1" points="655.32 37.22 655.71 35.55 628.19 27.3 614.72 30.59 655.32 37.22"/><path class="cls-2" d="M587.94,16.13l13.49,9.41,4.05-3.6c-2-.62-4.31-1.33-5.1-1.67-2.92-1.28-8.73-5.64-11.62-7.88C588.76,7.51,584.7,3,579,2,572.8.88,567,4.17,565.85,9.5c0,.09,0,.2-.06.28-1,5.44,3.34,10.8,9.64,11.93,5.44,1,10.54-1.39,12.5-5.58Zm-19.28-5.84h0l0-.17c.82-3.74,5.22-6.12,9.81-5.27s8,4.71,7.29,8.56l0,.2c-.79,3.74-5.22,6.09-9.81,5.27s-8-4.71-7.29-8.59Z"/><path class="cls-2" d="M624.45,25.94c14.54-4.28,31.86-9.07,31.86-9.07l-.6-1.59-47.59,6.86s-1.67,1.59-4.11,3.8h4.39a.36.36,0,0,1,0-.17h0a1.71,1.71,0,0,1,1.87-1.62,1.75,1.75,0,0,1,1.62,1.79Z"/><path class="cls-2" d="M17.29,99.38c-.48.43-.71.82-.62,1.13s.45.57,1,.74a1.35,1.35,0,0,1-.77-.82,1.37,1.37,0,0,1,.34-1Z"/><path class="cls-2" d="M21.74,95.58c-4.68,1.08-7.85,3.43-7.4,5.47s4.37,2.75,9,1.67c.4-.09.79-.2,1.19-.31l80.25-21.26c.62-.17,1-.65.94-1.11a1,1,0,0,0-1.3-.57L23,95.33l-1.25.26Zm-5.07,4.93h0c-.45-1.9,3.15-3,5.39-3.51,3.09-.74,9.41-1.87,9.86,0s-5.78,3.63-8.87,4.34c-2.21.51-6.07.62-6.38-.82Z"/><path class="cls-2" d="M66,56c-.62-.65-1.64.28-1,.94,7.09,7.48,3,16.36-4.28,21.4-2-5.81-5.58-11.59-11.4-12.47a9.94,9.94,0,0,0-10.8,5.78,8.57,8.57,0,0,0,5.16,11.54c5,1.76,11.14.23,16-2.49,2.89,9.21,1.9,19.28-4.2,27.18-8.48,11-26.19,14.8-38.27,8.08a2.83,2.83,0,0,0-.4-.23,65.39,65.39,0,0,0,10.32-17.8c3.12-8,3.94-18.34-4.93-22.85-4.71-2.38-10.83-2.95-15.59-.48S.06,82.8,0,87.87a34.73,34.73,0,0,0,15.05,28.69,46.73,46.73,0,0,1-4.79,5c-.31.28.11.77.45.48a46.31,46.31,0,0,0,5-5c.4.26.82.48,1.22.71,10.69,5.92,24.89,3.32,34.47-3.57,9-6.49,13-17.77,11.17-28.52a42.22,42.22,0,0,0-1.39-5.87,29,29,0,0,0,3-2.24C70.87,71.72,72.43,62.45,66,56ZM1.79,88.81h0C1.5,83.4,3.46,77.87,8.65,75.51c4.68-2.1,11.17-.51,15.17,2.38,7.17,5.19,3.86,16.07,1,22.68a65.85,65.85,0,0,1-8.67,14.66C7.29,109.67,2.33,99,1.79,88.81Zm41.78-7.29h0c-4-1.42-4.82-5.84-3.6-9.44,1.13-3.37,5-4.93,8.31-4.79,4.88.2,8,5.19,9.81,9.13.43.94.82,1.87,1.16,2.83-4.85,2.83-10.74,4.05-15.68,2.27Z"/><polygon class="cls-1" points="563.33 90.82 563.5 90.77 565.37 90.17 567.24 89.55 569.11 88.89 571.01 88.21 572.91 87.53 574.81 86.85 576.77 86.14 575.78 83.48 573.85 84.19 571.95 84.87 570.05 85.55 568.18 86.2 566.31 86.85 564.47 87.48 562.62 88.07 562.45 88.13 563.33 90.82"/><polygon class="cls-1" points="541.42 97.09 542.16 96.92 543.89 96.49 545.62 96.04 547.34 95.58 549.1 95.1 550.86 94.62 552.64 94.11 554.43 93.6 555.17 93.37 554.35 90.65 553.61 90.88 551.85 91.39 550.09 91.9 548.37 92.38 546.63 92.83 544.91 93.29 543.21 93.74 541.5 94.17 540.74 94.34 541.42 97.09"/><polygon class="cls-1" points="519.03 101.45 519.17 101.42 520.75 101.2 522.34 100.94 523.96 100.69 525.55 100.4 527.16 100.12 528.81 99.81 530.45 99.5 532.09 99.18 533.09 98.96 532.49 96.18 531.53 96.41 529.88 96.72 528.27 97.03 526.68 97.31 525.06 97.63 523.48 97.88 521.89 98.14 520.33 98.39 518.77 98.62 518.63 98.65 519.03 101.45"/><polygon class="cls-1" points="496.32 103.49 496.38 103.49 497.85 103.44 499.32 103.35 500.8 103.29 502.27 103.18 503.78 103.1 505.28 102.98 506.81 102.84 508.31 102.73 509.84 102.56 510.55 102.5 510.24 99.67 509.56 99.75 508.06 99.89 506.55 100.03 505.08 100.15 503.58 100.26 502.1 100.38 500.63 100.46 499.18 100.52 497.71 100.6 496.26 100.66 496.21 100.66 496.32 103.49"/><polygon class="cls-1" points="473.5 103.01 473.62 103.01 475 103.12 476.39 103.21 477.78 103.29 479.2 103.35 480.59 103.44 482.01 103.49 483.39 103.52 484.81 103.58 486.26 103.58 487.68 103.61 487.76 103.61 487.76 100.77 487.7 100.77 486.29 100.74 484.9 100.74 483.48 100.69 482.09 100.66 480.7 100.6 479.31 100.55 477.95 100.46 476.56 100.38 475.2 100.29 473.84 100.2 473.7 100.18 473.5 103.01"/><polygon class="cls-1" points="450.88 100.15 451.93 100.32 453.29 100.55 454.62 100.77 455.95 100.97 457.29 101.17 458.65 101.37 459.98 101.56 461.34 101.73 462.67 101.91 464.03 102.08 464.97 102.19 465.28 99.38 464.37 99.27 463.04 99.1 461.71 98.93 460.38 98.76 459.05 98.56 457.71 98.36 456.38 98.16 455.05 97.97 453.74 97.74 452.41 97.54 451.33 97.34 450.88 100.15"/><polygon class="cls-1" points="428.6 95.44 429.42 95.64 430.75 95.95 432.06 96.27 433.39 96.58 434.72 96.89 436.03 97.17 437.36 97.45 438.66 97.77 440 98.05 441.33 98.31 442.46 98.56 443.03 95.78 441.89 95.53 440.59 95.27 439.29 94.99 437.95 94.71 436.65 94.42 435.35 94.11 434.04 93.83 432.71 93.52 431.41 93.2 430.1 92.89 429.25 92.69 428.6 95.44"/><polygon class="cls-1" points="406.6 89.69 409.44 90.45 412.13 91.19 414.82 91.93 416.16 92.27 417.49 92.64 418.82 92.98 420.15 93.32 420.32 93.37 421.03 90.62 420.86 90.57 419.53 90.23 418.2 89.89 416.89 89.52 415.56 89.18 412.87 88.47 410.2 87.73 407.37 86.94 406.6 89.69"/><polygon class="cls-1" points="384.75 83.65 387.44 84.39 398.41 87.42 399.18 84.7 388.21 81.67 385.51 80.93 384.75 83.65"/><polygon class="cls-1" points="362.84 77.95 364.14 78.29 365.64 78.66 367.15 79.03 368.65 79.4 370.12 79.8 371.6 80.16 373.07 80.53 374.54 80.93 375.99 81.3 376.56 81.47 377.26 78.72 376.73 78.58 375.25 78.18 373.78 77.81 372.31 77.41 370.83 77.05 369.36 76.65 367.85 76.28 366.35 75.91 364.82 75.52 363.52 75.2 362.84 77.95"/><polygon class="cls-1" points="340.75 73.02 342.23 73.3 343.85 73.64 345.46 73.98 347.08 74.32 348.66 74.67 350.25 75.03 351.84 75.37 353.4 75.74 354.59 76 355.21 73.25 354.02 72.96 352.43 72.59 350.85 72.25 349.26 71.92 347.67 71.55 346.06 71.21 344.41 70.87 342.8 70.53 341.32 70.24 340.75 73.02"/><polygon class="cls-1" points="318.5 69.11 320.2 69.36 321.96 69.65 323.72 69.9 325.45 70.21 327.18 70.5 328.88 70.78 330.58 71.09 332.28 71.41 332.45 71.43 332.96 68.63 332.79 68.6 331.09 68.29 329.36 68 327.66 67.69 325.9 67.41 324.17 67.12 322.42 66.84 320.63 66.56 318.93 66.3 318.5 69.11"/><polygon class="cls-1" points="296.08 66.3 296.25 66.33 298.18 66.5 300.08 66.73 301.98 66.93 303.85 67.15 305.72 67.35 307.56 67.58 309.4 67.83 310.11 67.92 310.48 65.11 309.77 65 307.93 64.77 306.06 64.55 304.19 64.32 302.29 64.12 300.39 63.89 298.46 63.69 296.54 63.5 296.37 63.47 296.08 66.3"/><polygon class="cls-1" points="273.55 64.66 274.25 64.69 276.32 64.8 278.37 64.91 280.43 65.03 282.45 65.17 284.46 65.31 286.47 65.45 287.63 65.54 287.86 62.73 286.67 62.62 284.66 62.48 282.64 62.33 280.6 62.19 278.54 62.08 276.46 61.97 274.4 61.85 273.69 61.82 273.55 64.66"/><polygon class="cls-1" points="250.93 64.09 252.68 64.09 254.89 64.12 257.11 64.12 259.32 64.18 261.5 64.2 263.65 64.26 265.07 64.32 265.15 61.48 263.74 61.43 261.56 61.37 259.37 61.34 257.16 61.28 254.92 61.28 252.68 61.26 250.95 61.26 250.93 64.09"/><polygon class="cls-1" points="228.33 64.55 229.47 64.49 231.85 64.4 234.23 64.32 236.61 64.26 238.96 64.2 241.29 64.15 242.45 64.15 242.42 61.31 241.23 61.31 238.88 61.37 236.53 61.43 234.14 61.48 231.76 61.57 229.35 61.65 228.22 61.71 228.33 64.55"/><polygon class="cls-1" points="205.74 65.91 207.04 65.79 209.6 65.62 212.15 65.42 214.67 65.25 217.19 65.11 219.69 64.94 219.86 64.94 219.69 62.11 219.52 62.13 217.02 62.28 214.5 62.42 211.95 62.59 209.4 62.79 206.82 62.99 205.51 63.07 205.74 65.91"/><polygon class="cls-1" points="183.23 68.12 185.81 67.81 188.53 67.52 191.23 67.24 193.92 66.95 196.59 66.7 197.29 66.64 197.04 63.81 196.33 63.89 193.64 64.15 190.94 64.4 188.22 64.69 185.5 65 182.92 65.28 183.23 68.12"/><polygon class="cls-1" points="160.78 71.06 163.28 70.7 166.17 70.27 169.03 69.87 171.9 69.51 174.73 69.14 174.79 69.14 174.45 66.33 174.36 66.33 171.53 66.7 168.66 67.07 165.77 67.47 162.88 67.89 160.39 68.26 160.78 71.06"/><polygon class="cls-1" points="138.45 74.67 139.38 74.49 142.44 73.96 145.48 73.45 148.51 72.96 151.51 72.48 152.39 72.34 151.97 69.53 151.06 69.68 148.06 70.16 145.02 70.67 141.96 71.18 138.9 71.69 137.97 71.86 138.45 74.67"/><polygon class="cls-1" points="116.19 78.86 117.27 78.63 120.5 78.01 123.71 77.39 126.88 76.76 130.06 76.17 130.08 76.17 129.57 73.39 129.52 73.39 126.37 73.98 123.17 74.58 119.97 75.23 116.7 75.86 115.63 76.08 116.19 78.86"/><polygon class="cls-1" points="1294.39 36.77 1294.56 36.74 1298.04 36.62 1301.53 36.51 1305.05 36.4 1308.56 36.26 1308.47 33.42 1304.93 33.56 1301.44 33.68 1297.96 33.79 1294.47 33.9 1294.3 33.93 1294.39 36.77"/><polygon class="cls-1" points="1271.71 37.3 1274.03 37.25 1277.43 37.19 1280.81 37.11 1284.24 37.05 1285.88 36.99 1285.83 34.16 1284.15 34.21 1280.75 34.27 1277.35 34.36 1274.01 34.41 1271.65 34.47 1271.71 37.3"/><polygon class="cls-1" points="1249 37.56 1250.85 37.53 1254.11 37.53 1257.39 37.5 1260.68 37.47 1263.2 37.42 1263.15 34.58 1260.65 34.64 1257.37 34.67 1254.08 34.7 1250.82 34.7 1249 34.72 1249 37.56"/><polygon class="cls-1" points="1226.33 37.47 1228.4 37.5 1231.54 37.53 1234.75 37.53 1237.92 37.56 1240.5 37.56 1240.5 34.72 1237.92 34.72 1234.75 34.7 1231.57 34.7 1228.42 34.67 1226.36 34.64 1226.33 37.47"/><polygon class="cls-1" points="1203.62 37.11 1206.65 37.16 1209.72 37.25 1212.81 37.3 1215.89 37.36 1217.79 37.39 1217.85 34.55 1215.95 34.53 1212.86 34.47 1209.77 34.41 1206.74 34.33 1203.68 34.27 1203.62 37.11"/><polygon class="cls-1" points="1180.94 36.4 1182.67 36.45 1185.62 36.57 1188.6 36.68 1191.57 36.77 1194.55 36.85 1195.12 36.88 1195.2 34.04 1194.63 34.02 1191.66 33.93 1188.68 33.85 1185.73 33.73 1182.79 33.62 1181.03 33.56 1180.94 36.4"/><polygon class="cls-1" points="1158.27 35.38 1159.51 35.43 1162.35 35.58 1165.21 35.72 1168.1 35.86 1170.99 36 1172.44 36.06 1172.55 33.22 1171.11 33.16 1168.24 33.02 1165.35 32.88 1162.49 32.74 1159.66 32.6 1158.41 32.54 1158.27 35.38"/><polygon class="cls-1" points="1135.62 34.02 1137.15 34.13 1139.9 34.3 1142.68 34.47 1145.45 34.64 1148.23 34.81 1149.76 34.89 1149.93 32.09 1148.4 31.98 1145.62 31.83 1142.85 31.66 1140.07 31.49 1137.32 31.29 1135.79 31.21 1135.62 34.02"/><polygon class="cls-1" points="1112.97 32.37 1115.52 32.57 1118.18 32.77 1120.85 32.99 1123.54 33.19 1126.23 33.39 1127.11 33.45 1127.31 30.61 1126.43 30.56 1123.74 30.36 1121.08 30.16 1118.38 29.96 1115.72 29.76 1113.2 29.54 1112.97 32.37"/><polygon class="cls-1" points="1090.35 30.42 1091.99 30.59 1094.57 30.81 1097.15 31.04 1099.73 31.27 1102.34 31.49 1104.49 31.69 1104.72 28.86 1102.6 28.66 1099.99 28.43 1097.38 28.2 1094.8 27.98 1092.25 27.75 1090.63 27.61 1090.35 30.42"/><polygon class="cls-1" points="1067.79 28.2 1069.26 28.38 1071.72 28.63 1074.25 28.86 1076.74 29.11 1079.27 29.37 1081.79 29.62 1081.9 29.62 1082.16 26.82 1082.07 26.79 1079.55 26.56 1077.03 26.31 1074.53 26.05 1072.04 25.8 1069.54 25.54 1068.07 25.4 1067.79 28.2"/><polygon class="cls-1" points="1045.22 25.74 1047.23 25.96 1049.64 26.25 1052.05 26.53 1054.49 26.79 1056.93 27.04 1059.31 27.33 1059.62 24.49 1057.24 24.24 1054.8 23.98 1052.37 23.7 1049.95 23.44 1047.55 23.16 1045.53 22.93 1045.22 25.74"/><polygon class="cls-1" points="1022.69 23.1 1023.51 23.19 1028.18 23.75 1032.89 24.32 1036.77 24.77 1037.09 21.97 1033.23 21.52 1028.53 20.95 1023.85 20.38 1023.03 20.3 1022.69 23.1"/><polygon class="cls-1" points="1000.18 20.32 1000.46 20.35 1005.03 20.92 1009.59 21.49 1014.21 22.05 1014.24 22.08 1014.58 19.25 1014.55 19.25 1009.96 18.68 1005.37 18.11 1000.8 17.55 1000.52 17.49 1000.18 20.32"/><polygon class="cls-1" points="977.67 17.46 978.01 17.49 991.73 19.25 992.1 16.44 978.35 14.68 978.04 14.63 977.67 17.46"/><polygon class="cls-1" points="955.19 14.6 956.01 14.71 960.38 15.25 969.25 16.38 969.59 13.58 960.75 12.44 956.38 11.88 955.53 11.79 955.19 14.6"/><polygon class="cls-1" points="932.69 11.85 934.41 12.05 938.72 12.56 943.03 13.1 946.75 13.55 947.09 10.74 943.37 10.29 939.06 9.75 934.75 9.24 933.03 9.04 932.69 11.85"/><polygon class="cls-1" points="910.15 9.3 910.94 9.38 913.07 9.61 915.2 9.84 917.32 10.06 921.57 10.54 924.24 10.86 924.58 8.05 921.91 7.74 917.63 7.26 915.51 7.03 913.38 6.78 911.26 6.55 910.46 6.46 910.15 9.3"/><polygon class="cls-1" points="887.62 7.03 887.7 7.03 889.8 7.23 891.92 7.43 894.02 7.63 896.15 7.82 898.25 8.05 900.37 8.25 901.7 8.39 902.01 5.58 900.65 5.44 898.53 5.22 896.4 5.02 894.3 4.82 892.18 4.59 890.05 4.39 887.96 4.2 887.87 4.2 887.62 7.03"/><polygon class="cls-1" points="865.05 5.16 866.58 5.27 868.71 5.44 870.81 5.58 872.93 5.75 875.03 5.92 877.13 6.09 879.17 6.26 879.39 3.46 877.38 3.29 875.26 3.09 873.13 2.92 871.03 2.78 868.91 2.61 866.78 2.44 865.25 2.32 865.05 5.16"/><polygon class="cls-1" points="842.46 3.8 843.31 3.83 845.41 3.94 847.53 4.05 849.66 4.17 851.78 4.28 853.91 4.42 856.01 4.54 856.58 4.59 856.77 1.76 856.21 1.73 854.08 1.59 851.96 1.47 849.83 1.33 847.7 1.22 845.58 1.11 843.42 0.99 842.6 0.96 842.46 3.8"/><polygon class="cls-1" points="819.81 3 821.94 3.06 824.09 3.12 826.25 3.17 828.37 3.23 830.52 3.29 832.65 3.37 833.96 3.43 834.07 0.59 832.76 0.54 830.61 0.45 828.46 0.4 826.33 0.34 824.18 0.28 822.02 0.23 819.89 0.17 819.81 3"/><polygon class="cls-1" points="797.19 2.86 798.13 2.86 800.31 2.83 802.49 2.83 804.67 2.83 806.83 2.83 809.01 2.86 811.16 2.86 811.34 2.86 811.36 0.03 811.19 0.03 809.04 0.03 806.86 0 804.67 0 802.49 0 800.31 0 798.13 0.03 797.16 0.03 797.19 2.86"/><polygon class="cls-1" points="774.57 3.4 776.07 3.35 778.31 3.26 780.52 3.2 782.73 3.12 784.94 3.06 787.15 3 788.71 2.98 788.66 0.14 787.1 0.17 784.89 0.23 782.65 0.28 780.44 0.37 778.2 0.42 775.96 0.51 774.46 0.57 774.57 3.4"/><polygon class="cls-1" points="751.98 4.68 753.51 4.56 755.8 4.39 758.07 4.25 760.34 4.11 762.61 3.97 764.88 3.85 766.09 3.8 765.95 0.96 764.71 1.02 762.44 1.16 760.17 1.28 757.9 1.42 755.61 1.56 753.31 1.73 751.78 1.84 751.98 4.68"/><polygon class="cls-1" points="729.41 6.63 730.35 6.55 732.7 6.32 735.03 6.09 737.38 5.87 739.7 5.64 742 5.44 743.5 5.33 743.27 2.49 741.77 2.64 739.45 2.83 737.1 3.03 734.77 3.26 732.42 3.49 730.07 3.74 729.13 3.83 729.41 6.63"/><polygon class="cls-1" points="706.96 9.33 708.89 9.07 711.3 8.76 713.71 8.45 716.12 8.16 718.5 7.85 720.88 7.57 721 7.57 720.65 4.76 720.57 4.76 718.16 5.05 715.78 5.33 713.37 5.64 710.96 5.95 708.52 6.26 706.57 6.52 706.96 9.33"/><polygon class="cls-1" points="684.57 12.7 686.81 12.33 689.3 11.93 691.77 11.54 694.24 11.17 696.7 10.8 698.54 10.52 698.15 7.71 696.28 7.99 693.81 8.36 691.34 8.73 688.85 9.13 686.36 9.52 684.12 9.89 684.57 12.7"/></g></g></svg>