<svg xmlns="http://www.w3.org/2000/svg" viewBox="0 0 47.85 27.44"><defs><style>.cls-1{fill:#c7cbcf;fill-rule:evenodd;}.cls-2{fill:#f3f3f3;}</style></defs><title>books_page</title><g id="Слой_2" data-name="Слой 2"><g id="Слой_1-2" data-name="Слой 1"><path class="cls-1" d="M42.41,23.58H30.3c-.65,0-1.3-.26-1.3-.94a1.11,1.11,0,0,1,1.22-1.08H42.29a1.11,1.11,0,0,1,1.19,1.08c0,.68-.51.94-1.16.94Zm-6.75-6.12-2.95,0,1.59-2.38c1.39,2.44,0,0,1.36,2.41Zm1.62-1.64,1.25-2,2.55,3.71-2.81,0ZM30.39,11c3.15.85,5.56-1.47,4.68-4.65l6.46,0v7.85l-2-2.49a1.18,1.18,0,0,0-2.07,0L36,14.17,35.29,13a1.2,1.2,0,0,0-2.07,0l-2.83,4Zm0-4.68h2.83c1.3,1.67-1.13,4.2-2.83,2.89ZM46.66,0H25.29a1.21,1.21,0,0,0-1.22,1.22V3.91H22.88a1.2,1.2,0,1,0,0,2.41h1.19V9.64H22.88a1.2,1.2,0,1,0,0,2.41h1.19v3.34H22.88a1.2,1.2,0,1,0,0,2.41h1.19v3.32H22.88a1.2,1.2,0,1,0,0,2.41h1.19v2.72a1.2,1.2,0,0,0,1.22,1.19H46.66a1.2,1.2,0,0,0,1.19-1.19v-25A1.2,1.2,0,0,0,46.66,0Z"/><path class="cls-1" d="M16.07,9.81H2.32a.76.76,0,0,0-.77.77v1.76H.77a.77.77,0,0,0,0,1.53h.79V16H.77a.76.76,0,0,0-.77.77.79.79,0,0,0,.77.79h.79V19.7H.77a.76.76,0,0,0-.77.77.79.79,0,0,0,.77.79h.79v2.13H.77a.76.76,0,0,0-.77.77.79.79,0,0,0,.77.79h.79v1.73a.76.76,0,0,0,.77.77H16.07a.76.76,0,0,0,.77-.77V10.57a.76.76,0,0,0-.77-.77Z"/><rect class="cls-2" x="8.9" y="12.67" width="5.41" height="3.09"/></g></g></svg>