<svg xmlns="http://www.w3.org/2000/svg" viewBox="0 0 64.43 27.5"><defs><style>.cls-1{fill:#c7cbcf;}.cls-1,.cls-3{fill-rule:evenodd;}.cls-2,.cls-3{fill:#dfe6eb;}</style></defs><title>books</title><g id="Слой_2" data-name="Слой 2"><g id="Слой_1-2" data-name="Слой 1"><path class="cls-1" d="M42.41,23.58H30.3c-.65,0-1.3-.26-1.3-.94a1.11,1.11,0,0,1,1.22-1.08H42.29a1.11,1.11,0,0,1,1.19,1.08c0,.68-.51.94-1.16.94Zm-6.75-6.12-2.95,0,1.59-2.38c1.39,2.44,0,0,1.36,2.41Zm1.62-1.64,1.25-2,2.55,3.71-2.81,0ZM30.39,11c3.15.85,5.56-1.47,4.68-4.65l6.46,0v7.85l-2-2.49a1.18,1.18,0,0,0-2.07,0L36,14.17,35.29,13a1.2,1.2,0,0,0-2.07,0l-2.83,4Zm0-4.68h2.83c1.3,1.67-1.13,4.2-2.83,2.89ZM46.66,0H25.29a1.21,1.21,0,0,0-1.22,1.22V3.91H22.88a1.2,1.2,0,1,0,0,2.41h1.19V9.64H22.88a1.2,1.2,0,1,0,0,2.41h1.19v3.34H22.88a1.2,1.2,0,1,0,0,2.41h1.19v3.32H22.88a1.2,1.2,0,1,0,0,2.41h1.19v2.72a1.2,1.2,0,0,0,1.22,1.19H46.66a1.2,1.2,0,0,0,1.19-1.19v-25A1.2,1.2,0,0,0,46.66,0Z"/><path class="cls-1" d="M16.07,9.81H2.32a.76.76,0,0,0-.77.77v1.76H.77a.77.77,0,0,0,0,1.53h.79V16H.77a.76.76,0,0,0-.77.77.79.79,0,0,0,.77.79h.79V19.7H.77a.76.76,0,0,0-.77.77.79.79,0,0,0,.77.79h.79v2.13H.77a.76.76,0,0,0-.77.77.79.79,0,0,0,.77.79h.79v1.73a.76.76,0,0,0,.77.77H16.07a.76.76,0,0,0,.77-.77V10.57a.76.76,0,0,0-.77-.77Z"/><path class="cls-1" d="M63.75,12.61H52.19a.64.64,0,0,0-.65.65v1.47h-.65a.65.65,0,1,0,0,1.3h.65v1.79h-.65a.67.67,0,0,0,0,1.33h.65v1.79h-.65a.65.65,0,1,0,0,1.3h.65v1.81h-.65a.64.64,0,0,0-.65.65.66.66,0,0,0,.65.65h.65v1.47a.66.66,0,0,0,.65.65H63.75a.68.68,0,0,0,.68-.65V13.27a.67.67,0,0,0-.68-.65Z"/><rect class="cls-2" x="8.9" y="12.67" width="5.41" height="3.09"/><path class="cls-3" d="M60.24,18.85a1.74,1.74,0,1,0-1.76-1.76,1.76,1.76,0,0,0,1.76,1.76Z"/></g></g></svg>