<svg xmlns="http://www.w3.org/2000/svg" viewBox="0 0 427.32 24.55"><defs><style>.cls-1{fill:#87d1ff;}.cls-1,.cls-2,.cls-3,.cls-4{fill-rule:evenodd;}.cls-2{fill:#1166ab;}.cls-3{fill:#fefefe;}.cls-4{fill:#e4e4e4;}</style></defs><title>logo-label</title><g id="Слой_2" data-name="Слой 2"><g id="Слой_1-2" data-name="Слой 1"><polygon class="cls-1" points="8.99 3.66 11.11 9.64 17.97 9.61 12.42 13.29 14.54 19.25 8.99 15.56 3.43 19.25 5.58 13.29 0 9.61 6.89 9.64 8.99 3.66"/><polygon class="cls-1" points="31.24 3.85 33.36 9.84 40.22 9.81 34.67 13.49 36.79 19.45 31.24 15.76 25.68 19.45 27.84 13.49 22.25 9.81 29.14 9.84 31.24 3.85"/><polygon class="cls-1" points="51.79 3.77 53.89 9.72 60.77 9.72 55.19 13.41 57.34 19.36 51.79 15.65 46.23 19.36 48.36 13.41 42.8 9.72 49.66 9.72 51.79 3.77"/><polygon class="cls-1" points="372.47 3.43 374.6 9.38 381.46 9.38 375.9 13.07 378.03 19.02 372.47 15.31 366.92 19.02 369.07 13.07 363.49 9.38 370.38 9.38 372.47 3.43"/><polygon class="cls-1" points="395.43 3.57 397.56 9.55 404.42 9.52 398.86 13.21 400.99 19.16 395.43 15.48 389.88 19.16 392.03 13.21 386.45 9.52 393.33 9.55 395.43 3.57"/><polygon class="cls-1" points="418.34 3.43 420.46 9.38 427.32 9.38 421.77 13.07 423.89 19.02 418.34 15.31 412.78 19.02 414.94 13.07 409.35 9.38 416.24 9.38 418.34 3.43"/><path class="cls-2" d="M154.6,7l-1.25,4.9-7.63.06-.4,1.47v.14h7.77l-1.25,4.14-7.68.06-.26,1.13,7.48,0L150,23.81l-13.52.06S139.21,14.66,141,7Z"/><path class="cls-2" d="M145.19,14.43a2.93,2.93,0,0,0-.11.77v.11h6.26c.14-.51.23-.82.26-.88Z"/><polygon class="cls-2" points="153.13 8.93 153.44 7.68 141.85 7.77 137.45 23.56 139.04 23.47 142.72 8.96 153.13 8.93"/><path class="cls-2" d="M176.49,7h6.35l-1.5,6.41a7.45,7.45,0,0,0,2.21-.48L184.82,7l7.09.06-3.43,16.81-7.37.09,1.47-6.07s-.06,0-.14,0a6.47,6.47,0,0,0-1.19.17,3,3,0,0,0-1,.31L179,23.87l-5.53,0Z"/><path class="cls-2" d="M174.42,23.27l1.22-.34,2.69-14.51,3.74-.26.28-1a23.51,23.51,0,0,0-4.68.23l-.26.14c.06,0-3,15.7-3,15.7Z"/><path class="cls-2" d="M184.65,18a6.47,6.47,0,0,0-1.19.17.53.53,0,0,1-.2.06l-1.33,5,1.62-.31L184.79,18s-.06,0-.14,0Z"/><path class="cls-2" d="M185.41,14.66l1.39-6.41,4.11.23c.11-.37.23-.62.34-1l-5.73-.11-1.36,6.41c-.2.09-3.15.62-3.34.68l-.34,1.16a37.06,37.06,0,0,0,4.93-1Z"/><path class="cls-2" d="M273.77,5.27a40.07,40.07,0,0,1,6.29-.2L278,12.44a8.44,8.44,0,0,0,2.21-.51l1.56-6.75,7.6-.14-5.47,18L277.74,23l1.5-6.07s-.06,0-.14,0a6.47,6.47,0,0,0-1.19.17,3,3,0,0,0-1,.31l-1.33,5.58-6,.06,3.74-17.6Z"/><path class="cls-2" d="M271.08,22.31l1.19-.34L275,7.48s2-.17,3.74-.26l.28-1a23.51,23.51,0,0,0-4.68.23l-.28.11c.09,0-3,15.7-3,15.7Z"/><path class="cls-2" d="M281.31,17a7.2,7.2,0,0,0-1.19.2c-.09,0-.14,0-.2,0l-1.33,5L280.2,22l1.25-5a.34.34,0,0,0-.14,0Z"/><path class="cls-2" d="M282.08,13.69,283.8,7.2l3.88-.09c.14-.37.26-.74.4-1.11l-5.53.34-1.73,6.46c-.2.09-3.15.62-3.34.68l-.34,1.16a37.06,37.06,0,0,0,4.93-1Z"/><path class="cls-2" d="M222.66,5.22c1.59-.37,15.82,0,15.82,0L234.4,23.07l-6.32,0,3-12.59s-1.33,0-1.42,0a7.2,7.2,0,0,0-1.19.2,3,3,0,0,0-1,.31l-2.66,12.19-5.53-.06Z"/><path class="cls-2" d="M221.13,22.62l1.22-.34L225,7.8s9.72-.45,11.42-.57l.28-1s-10.77.17-12.36.54l-.26.11c.06,0-3,15.7-3,15.7Z"/><path class="cls-2" d="M233.32,10.4a6.47,6.47,0,0,0-1.19.17,1.81,1.81,0,0,0-.2.06L229,22.76l1.62-.31,2.83-12s-.06,0-.14,0Z"/><path class="cls-2" d="M198.17,15.36a4.21,4.21,0,0,0-.09.79,2,2,0,0,0,.62,1.59,2.37,2.37,0,0,0,1.62.54,3.86,3.86,0,0,0,3-1.42A4.21,4.21,0,0,0,204.49,14a2.22,2.22,0,0,0-.54-1.56,2.19,2.19,0,0,0-1.67-.6,3.92,3.92,0,0,0-2.44,1,4.43,4.43,0,0,0-1.67,2.49Zm5-9.81a7.69,7.69,0,0,1,5.07,1.53,6.51,6.51,0,0,1,2.24,5.24,10.08,10.08,0,0,1-.2,2.27,12,12,0,0,1-2.83,5.3A13.53,13.53,0,0,1,203,23.3a11.11,11.11,0,0,1-4.88,1.25A8.06,8.06,0,0,1,193,22.82a6.19,6.19,0,0,1-2.38-5.13,9.75,9.75,0,0,1,.26-2.18,12.16,12.16,0,0,1,5-7.34,12.42,12.42,0,0,1,7.34-2.61Z"/><path class="cls-2" d="M193.92,22.68a7.19,7.19,0,0,0,1,.65,5.84,5.84,0,0,1-2.07-4.65,8.74,8.74,0,0,1,.26-2,11.43,11.43,0,0,1,4.71-6.86,11.74,11.74,0,0,1,6.86-2.41,8.09,8.09,0,0,1,3.8.82,1.31,1.31,0,0,0-.2-.2,7.22,7.22,0,0,0-4.71-1.39A11.49,11.49,0,0,0,196.67,9a13,13,0,0,0-2.07,1.81c-1.3,1.28-3.51,5-2.69,8.76a5.64,5.64,0,0,0,2,3.09Z"/><path class="cls-2" d="M205.46,13.92a5.13,5.13,0,0,1-1.3,3.71,5.74,5.74,0,0,1-4.31,1.62,3.67,3.67,0,0,1-1-.11,2.26,2.26,0,0,0,.43.48,3.46,3.46,0,0,0,2.18.68,5.51,5.51,0,0,0,4.08-1.76A5.19,5.19,0,0,0,207.07,15a2.63,2.63,0,0,0-.74-1.93,2.39,2.39,0,0,0-1.28-.65,2.93,2.93,0,0,1,.4,1.53Z"/><path class="cls-2" d="M244,13.46a5.66,5.66,0,0,0,1.62-1,3.94,3.94,0,0,0,1.16-1.39,2.19,2.19,0,0,0,.06-.43,1.09,1.09,0,0,0-1.25-1.22,2.34,2.34,0,0,0-.74.11q-.17.94-.85,3.91Zm-.74,4.08-1.53,5.58h-6.29L239.36,5.3s6.75-.57,8.62-.48c5.64.26,5.73,2.64,4.71,6.41-1.5,5.41-5.56,5.75-9.41,6.32Z"/><path class="cls-2" d="M290.55,5.1,308.38,5l-2.07,5.3-7.31.48-2.86,12.42L289.36,23l3.46-12-.09-.06-4,0Z"/><polygon class="cls-2" points="272.47 5.33 263.11 5.3 258.44 15.73 261.41 5.07 254.86 5.1 250.44 23.13 259.48 23.13 264.87 10.63 261.89 23.02 268.58 23.16 272.47 5.33"/><polygon class="cls-2" points="293.9 11 290.58 22.48 291.86 22.31 295.12 11.05 293.9 11"/><path class="cls-2" d="M306.45,6.8c.11-.34.48-.77.6-1.11l-16.41.37s-.54,2.27-1.08,3.94h.85l.82-3Z"/><path class="cls-2" d="M248.4,6.15c-2.89-.06-8,.17-8.65.28-1.3,7.82-1.9,11.51-2.92,16,.54-.14,1-.26,1.53-.37,1-4.34,1.45-7.6,2.64-14.71l3.2-.26s2.52,0,4.71,0c3.23,0,3.29,1.76,3.29,1.76a2.38,2.38,0,0,0,.14-.91c0-.6-1-1.7-3.94-1.76Z"/><path class="cls-2" d="M244.09,14s2.3-.91,3-2.27a2.5,2.5,0,0,0,.17-2.35s2.38.65,1.11,2.75S244.09,14,244.09,14Z"/><polygon class="cls-2" points="175.63 7 166.48 6.95 164.41 9.84 163.42 7 154.91 6.97 159.85 15.22 151.28 24.07 160.81 23.78 162.68 20.92 163.84 24.01 172.18 23.9 167.87 15.62 175.63 7"/><polygon class="cls-2" points="158.06 9.33 163.56 9.18 162.96 8.19 156.53 8.33 160.53 15.31 153.89 22.62 155.71 22.31 161.8 15.68 158.06 9.33"/><polygon class="cls-2" points="168.04 8.62 172.69 8.62 173.65 7.63 167.27 7.65 164.89 10.74 165.51 11.85 168.04 8.62"/><path class="cls-2" d="M125.6,1.08,141.79.51l-2,7.11-5.07.14c-1.13,4.14-3.83,16.1-3.83,16.1h-6.69S128.1,9.81,128.55,8l-.09-.06L123.93,8Z"/><path class="cls-2" d="M131,7.82c-.31,0-.79,0-1.36,0-.74,2.83-2.3,9-4,14.77.54-.09,1.08-.17,1.59-.23C129,16.07,130.62,9.61,131,7.88Z"/><path class="cls-2" d="M140.29,2.52l.34-.94-14.26.77-1.13,4.54c.37,0,.85,0,1.47,0l.91-3.63Z"/><path class="cls-2" d="M256.14,6.38,252.43,21.6l1.42-.11,3.32-13.95,2.44.06.31-1.28s-3.69.06-3.77.06Z"/><polygon class="cls-2" points="263.68 6.38 258.15 19.13 258.21 20.81 264.3 7.43 271.33 7.51 271.56 6.35 263.68 6.38"/><polygon class="cls-2" points="265.55 10.69 263.03 21.4 264.19 21.4 266.85 10.49 265.55 10.69"/><path class="cls-3" d="M125.66.57,141.85,0l-2,7.11-5,.14c-1.16,4.11-3.86,16.1-3.86,16.1l-6.66,0s3.86-14,4.34-15.9l-.09,0L124,7.48Z"/><path class="cls-4" d="M140.34,2l.34-.94-14.29.77-1.11,4.54c.34,0,.85,0,1.47,0l.88-3.66Z"/><path class="cls-3" d="M154.63,6.43l-1.22,4.93-7.65,0-.4,1.5,0,.11h7.77l-1.25,4.17-7.68.06-.28,1.11,7.48.06L150,23.3l-13.49.06s2.69-9.21,4.45-16.87Z"/><path class="cls-4" d="M145.25,13.92a3.17,3.17,0,0,0-.14.77l0,.11h6.26c.14-.51.23-.82.23-.88Z"/><polygon class="cls-4" points="153.18 8.42 153.47 7.17 141.9 7.26 137.51 23.05 139.07 22.96 142.78 8.45 153.18 8.42"/><path class="cls-3" d="M176.54,6.43l6.32,0-1.47,6.41a7.26,7.26,0,0,0,2.18-.48l1.28-5.92,7.09.06-3.4,16.81-7.4.09,1.5-6.09a1,1,0,0,0-.17,0,7.49,7.49,0,0,0-1.16.2,3.29,3.29,0,0,0-1,.31L179,23.36l-5.56,0Z"/><path class="cls-4" d="M174.47,22.76l1.19-.37,2.69-14.49,3.77-.26.26-1a23.19,23.19,0,0,0-4.65.23l-.28.14c.09,0-3,15.7-3,15.7Z"/><path class="cls-4" d="M184.71,17.49a6.47,6.47,0,0,0-1.19.17,1.81,1.81,0,0,0-.2.06l-1.36,5,1.62-.31,1.28-4.93a.21.21,0,0,0-.14,0Z"/><path class="cls-4" d="M185.44,14.14l1.39-6.43,4.11.26c.14-.37.23-.62.37-1l-5.73-.11-1.39,6.43c-.2.06-3.12.6-3.34.65l-.31,1.19a41.71,41.71,0,0,0,4.9-1Z"/><path class="cls-3" d="M273.83,4.76a36.49,36.49,0,0,1,6.26-.2L278,11.91a7.45,7.45,0,0,0,2.21-.48l1.56-6.75,7.6-.14-5.44,18-6.15-.09,1.47-6.07s-.06,0-.14,0a6.25,6.25,0,0,0-1.16.17,3,3,0,0,0-1,.31l-1.3,5.58-6,.06L273.4,4.85Z"/><path class="cls-4" d="M271.11,21.8l1.22-.34L275,6.94l3.77-.26.26-1a21.81,21.81,0,0,0-4.65.26l-.28.11c.09,0-3,15.7-3,15.7Z"/><path class="cls-4" d="M281.34,16.53a5.09,5.09,0,0,0-1.16.2c-.09,0-.14,0-.23,0l-1.33,5,1.62-.31,1.25-4.93s-.06,0-.14,0Z"/><path class="cls-4" d="M282.1,13.18l1.73-6.49,3.91-.09c.11-.37.23-.74.37-1.11l-5.53.31-1.73,6.49c-.2.09-3.15.62-3.34.68l-.34,1.16a37.06,37.06,0,0,0,4.93-1Z"/><path class="cls-3" d="M222.69,4.71c1.59-.4,15.82,0,15.82,0l-4.05,17.89-6.35,0,3-12.61h-1.42a5.09,5.09,0,0,0-1.16.2,3.62,3.62,0,0,0-1,.28L224.9,22.62l-5.5-.06Z"/><path class="cls-4" d="M221.19,22.11l1.19-.34,2.69-14.51s9.72-.43,11.45-.54l.26-1s-10.74.14-12.33.51l-.28.14c.09,0-3,15.7-3,15.7Z"/><path class="cls-4" d="M233.35,9.86a7,7,0,0,0-1.16.2.67.67,0,0,0-.23.06l-2.89,12.13,1.62-.31,2.81-12a.34.34,0,0,0-.14,0Z"/><path class="cls-3" d="M198.23,14.85a2.68,2.68,0,0,0-.11.79,2.09,2.09,0,0,0,.62,1.59,2.37,2.37,0,0,0,1.62.54,3.91,3.91,0,0,0,3-1.42,4.21,4.21,0,0,0,1.13-2.83A2.18,2.18,0,0,0,204,12a2.19,2.19,0,0,0-1.67-.6,4,4,0,0,0-2.44,1,4.38,4.38,0,0,0-1.64,2.49Zm5-9.81a7.8,7.8,0,0,1,5.07,1.53,6.69,6.69,0,0,1,2.24,5.24,10.09,10.09,0,0,1-.23,2.27,12.2,12.2,0,0,1-2.81,5.3,14.78,14.78,0,0,1-4.51,3.4A11,11,0,0,1,198.17,24a8.1,8.1,0,0,1-5.19-1.7,6.19,6.19,0,0,1-2.38-5.13,9.75,9.75,0,0,1,.26-2.18,12.32,12.32,0,0,1,5.07-7.34A12.36,12.36,0,0,1,203.27,5Z"/><path class="cls-4" d="M194,22.17a6.92,6.92,0,0,0,.94.65,5.82,5.82,0,0,1-2-4.65,10,10,0,0,1,.23-2,11.55,11.55,0,0,1,4.71-6.86,11.62,11.62,0,0,1,6.86-2.41,8.1,8.1,0,0,1,3.8.79l-.17-.17a7.36,7.36,0,0,0-4.73-1.42A11.59,11.59,0,0,0,196.7,8.5a12.6,12.6,0,0,0-2,1.81c-1.3,1.28-3.51,5-2.69,8.73a5.56,5.56,0,0,0,2,3.12Z"/><path class="cls-4" d="M205.51,13.41a5.25,5.25,0,0,1-1.3,3.71,5.8,5.8,0,0,1-4.34,1.62,5,5,0,0,1-1-.11,2.26,2.26,0,0,0,.43.48,3.32,3.32,0,0,0,2.15.68A5.35,5.35,0,0,0,205.57,18a5.16,5.16,0,0,0,1.56-3.54,2.54,2.54,0,0,0-.77-1.93,2.29,2.29,0,0,0-1.28-.65,2.7,2.7,0,0,1,.43,1.53Z"/><path class="cls-3" d="M244.06,12.93a5.07,5.07,0,0,0,1.59-1,3.89,3.89,0,0,0,1.16-1.39,2.19,2.19,0,0,0,.06-.43,1.1,1.1,0,0,0-1.25-1.25,2.25,2.25,0,0,0-.71.14c-.11.62-.4,1.9-.85,3.88ZM243.3,17l-1.5,5.58H235.5l3.91-17.83s6.72-.6,8.59-.51c5.64.28,5.75,2.66,4.71,6.43-1.47,5.41-5.53,5.73-9.41,6.32Z"/><path class="cls-3" d="M290.61,4.59l17.83-.11-2.07,5.27-7.34.51-2.86,12.39-6.75-.14,3.43-12.08-.09-.06-4,.06Z"/><polygon class="cls-3" points="272.52 4.79 263.17 4.79 258.46 15.22 261.44 4.54 254.89 4.59 250.5 22.62 259.54 22.59 264.93 10.12 261.92 22.51 268.64 22.62 272.52 4.79"/><polygon class="cls-4" points="293.95 10.46 290.64 21.94 291.88 21.77 295.14 10.54 293.95 10.46"/><path class="cls-4" d="M306.48,6.29c.14-.34.51-.79.62-1.13l-16.44.4s-.54,2.27-1.08,3.94c.26,0,.54,0,.85,0l.82-3Z"/><path class="cls-4" d="M248.43,5.64c-2.89-.06-8,.14-8.65.26-1.3,7.85-1.87,11.54-2.92,16,.57-.14,1-.26,1.53-.4,1-4.31,1.45-7.57,2.64-14.71l3.23-.23s2.52-.06,4.71,0c3.23.06,3.26,1.79,3.26,1.79a2.38,2.38,0,0,0,.14-.91c0-.62-1-1.73-3.94-1.76Z"/><path class="cls-4" d="M244.12,13.49s2.3-.91,3-2.27a2.55,2.55,0,0,0,.2-2.35s2.38.65,1.08,2.72-4.31,1.9-4.31,1.9Z"/><polygon class="cls-3" points="175.66 6.49 166.51 6.43 164.44 9.33 163.47 6.49 154.97 6.43 159.87 14.68 151.31 23.56 160.84 23.27 162.74 20.38 163.87 23.5 172.21 23.39 167.9 15.11 175.66 6.49"/><polygon class="cls-4" points="158.12 8.82 163.59 8.67 162.99 7.68 156.59 7.82 160.58 14.77 153.95 22.11 155.76 21.8 161.83 15.16 158.12 8.82"/><polygon class="cls-4" points="168.09 8.11 172.72 8.08 173.68 7.12 167.33 7.14 164.92 10.23 165.54 11.34 168.09 8.11"/><path class="cls-4" d="M131,7.31h-1.39c-.71,2.86-2.27,9-4,14.77.54-.09,1-.14,1.56-.23,1.84-6.29,3.46-12.76,3.88-14.51Z"/><path class="cls-4" d="M256.2,5.87l-3.74,15.22,1.42-.14L257.22,7l2.44.06L260,5.81s-3.71.06-3.77.06Z"/><polygon class="cls-4" points="263.71 5.87 258.21 18.62 258.24 20.3 264.36 6.92 271.36 7 271.59 5.84 263.71 5.87"/><polygon class="cls-4" points="265.61 10.15 263.06 20.86 264.25 20.86 266.88 9.98 265.61 10.15"/></g></g></svg>